<svg width="930" height="176" viewBox="0 0 930 176" fill="none" xmlns="http://www.w3.org/2000/svg">
<path fill-rule="evenodd" clip-rule="evenodd" d="M609.383 34.3779C609 34.9043 609 35.6055 609 37.0088V54C609 54.3867 609 54.6943 608.98 54.9424C608.949 55.2998 608.879 55.5342 608.707 55.707C608.578 55.8359 608.414 55.9082 608.191 55.9482C607.906 56 607.527 56 607 56H536C521.859 56 514.785 56 510.395 60.3936C506 64.7871 506 71.8584 506 86V116C506 130.143 506 137.214 510.395 141.606C514.785 146 521.859 146 536 146H634V26L611.766 33.2031C610.434 33.6357 609.766 33.8525 609.383 34.3779ZM604.773 126.775C603.375 127 601.527 127 599 127H541C536.285 127 533.93 127 532.465 125.536C531 124.071 531 121.714 531 117V85C531 80.2861 531 77.9287 532.465 76.4648C533.93 75 536.285 75 541 75H609V117C609 121.714 609 124.071 607.535 125.536C606.855 126.216 605.984 126.58 604.773 126.775Z" fill="white"/>
<path fill-rule="evenodd" clip-rule="evenodd" d="M684 146C669.859 146 662.785 146 658.395 141.606C654 137.213 654 130.143 654 116V106C654 103.332 654 101.203 654.137 99.4775C654.336 96.9365 654.828 95.2715 656.051 94.0498C657.043 93.0596 658.324 92.5479 660.129 92.2832C661.168 92.1309 662.379 92.0605 663.809 92.0283C665.035 92 666.422 92 668 92H755C755.32 92 755.59 92 755.812 91.9883C755.984 91.9795 756.129 91.9639 756.254 91.9355C756.445 91.8936 756.59 91.8232 756.707 91.707C756.848 91.5664 756.922 91.3838 756.961 91.1279C756.98 91.002 756.988 90.8584 756.992 90.6934L757 90.4258V85C757 83.9365 757 82.9932 756.984 82.1523C756.957 80.8359 756.891 79.7725 756.715 78.8975C756.598 78.3008 756.43 77.792 756.191 77.3506C756.016 77.0205 755.801 76.7285 755.535 76.4648C754.07 75 751.715 75 747 75H654V56H752C766.141 56 773.215 56 777.605 60.3936C782 64.7871 782 71.8574 782 86V146H684ZM757 110H687.5C684.227 110 682.59 110 681.387 110.736C681.117 110.901 680.867 111.092 680.633 111.304C680.531 111.396 680.43 111.494 680.336 111.595C680.254 111.684 680.176 111.775 680.102 111.87C679.969 112.034 679.848 112.207 679.738 112.388C679 113.59 679 115.227 679 118.5C679 120.76 679 122.239 679.242 123.335C679.352 123.826 679.508 124.24 679.738 124.612C680.148 125.285 680.715 125.851 681.387 126.264C682.59 127 684.227 127 687.5 127H747L748.926 126.995C749.691 126.989 750.379 126.976 751.004 126.944C753.195 126.835 754.562 126.509 755.535 125.535C756.098 124.974 756.445 124.279 756.66 123.371C757 121.914 757 119.904 757 117V110Z" fill="white"/>
<path fill-rule="evenodd" clip-rule="evenodd" d="M826.957 166.578C826.934 166.841 826.887 167.062 826.812 167.254C826.762 167.388 826.699 167.509 826.617 167.622C826.234 168.147 825.566 168.364 824.234 168.797L802 176V56H900C914.141 56 921.215 56 925.605 60.3936C930 64.7871 930 71.8584 930 86V116C930 130.143 930 137.214 925.605 141.606C921.215 146 914.141 146 900 146H829C828.727 146 828.492 146 828.289 146.008C828.09 146.015 827.922 146.028 827.781 146.057C827.574 146.099 827.418 146.17 827.293 146.293C827.137 146.447 827.066 146.651 827.031 146.948C827 147.215 827 147.555 827 148V164.991L826.996 165.762C826.992 166.075 826.98 166.344 826.957 166.578ZM831.074 75.252C829.941 75.4531 829.117 75.8145 828.465 76.4648C827 77.9287 827 80.2861 827 85V127H895C899.715 127 902.07 127 903.535 125.536C905 124.071 905 121.714 905 117V85C905 80.2861 905 77.9287 903.535 76.4648C902.07 75 899.715 75 895 75H837C835.277 75 833.871 75 832.703 75.0723C832.098 75.1094 831.559 75.166 831.074 75.252Z" fill="white"/>
<path fill-rule="evenodd" clip-rule="evenodd" d="M456 56C470.141 56 477.215 56 481.605 60.3936C486 64.7871 486 71.8574 486 86V96C486 102.6 486 105.899 483.949 107.95C481.898 110 478.602 110 472 110H385C384.059 110 383.586 110 383.293 110.293C383 110.586 383 111.058 383 112V117C383 121.714 383 124.071 384.465 125.535C385.93 127 388.285 127 393 127H486V146H388C373.859 146 366.785 146 362.395 141.606C358 137.213 358 130.143 358 116V86C358 71.8574 358 64.7871 362.395 60.3936C366.785 56 373.859 56 388 56H456ZM383 92H452.5C455.773 92 457.41 92 458.613 91.2637C459.285 90.8506 459.852 90.2852 460.262 89.6123C460.5 89.2246 460.66 88.792 460.77 88.2734C461 87.1836 461 85.7178 461 83.5C461 82.0605 461 80.9375 460.938 80.0293C460.859 78.8711 460.676 78.0615 460.262 77.3877C459.852 76.7148 459.285 76.1494 458.613 75.7363C457.41 75 455.773 75 452.5 75H393C388.285 75 385.93 75 384.465 76.4648C383 77.9287 383 80.2861 383 85V92Z" fill="white"/>
<path d="M331.555 62.4434C325.113 56 314.742 56 294 56H210V146H235V85C235 80.2861 235 77.9287 236.465 76.4648C237.93 75 240.285 75 245 75H293C302.43 75 307.141 75 310.07 77.9287C313 80.8574 313 85.5723 313 95V146H338V100C338 79.2578 338 68.8877 331.555 62.4434Z" fill="white"/>
<path d="M93.0894 55.8406C96.9185 55.8406 98.833 55.8406 99.9 54.6141C100.967 53.3876 100.698 51.493 100.159 47.7038L94.286 6.41178C93.8672 3.49013 93.6578 2.02431 92.6606 1.15679C91.6535 0.279297 90.1777 0.279297 87.2262 0.279297H82.7888C79.8373 0.279297 78.3615 0.279297 77.3544 1.15679C76.3472 2.03428 76.1378 3.49013 75.729 6.41178L69.8458 47.7038C69.3073 51.493 69.0381 53.3876 70.1051 54.6141C71.172 55.8406 73.0866 55.8406 76.9156 55.8406H93.0894Z" fill="#FF6C37"/>
<path d="M57.464 69.9704C58.6506 66.3308 59.2389 64.516 58.4013 63.12C57.5637 61.724 55.6791 61.3949 51.9098 60.7368L10.8172 53.5573C7.90552 53.0487 6.44968 52.7994 5.31292 53.4775C4.17617 54.1655 3.71748 55.5715 2.8001 58.3735L1.434 62.6014C0.516624 65.4134 0.0679062 66.8094 0.586425 68.0359C1.10494 69.2624 2.43116 69.9106 5.08358 71.2069L42.5366 89.5545C45.9768 91.2396 47.6919 92.0773 49.1876 91.4391C50.6833 90.8009 51.2816 88.9861 52.4583 85.3465L57.464 69.9704Z" fill="#FF6C37"/>
<path d="M59.8937 108.222C56.8025 105.968 55.247 104.851 53.6615 105.22C52.076 105.589 51.1786 107.274 49.3937 110.665L29.8694 147.509C28.4834 150.122 27.7954 151.428 28.0945 152.724C28.3937 154.021 29.5903 154.888 31.9834 156.623L35.5732 159.226C37.9663 160.961 39.1529 161.828 40.4791 161.719C41.8054 161.599 42.8324 160.542 44.8866 158.418L73.9037 128.464C76.5661 125.712 77.8923 124.346 77.7527 122.72C77.6131 121.095 76.0675 119.978 72.9663 117.724L59.8937 108.222Z" fill="#FF6C37"/>
<path d="M97.0065 117.734C93.9153 119.988 92.3598 121.105 92.2202 122.73C92.0806 124.355 93.4068 125.721 96.0692 128.473L125.086 158.428C127.14 160.552 128.168 161.609 129.494 161.729C130.82 161.848 132.017 160.981 134.4 159.236L137.989 156.633C140.383 154.898 141.569 154.03 141.878 152.734C142.187 151.438 141.489 150.132 140.103 147.519L120.599 110.664C118.804 107.284 117.917 105.589 116.331 105.23C114.746 104.861 113.2 105.988 110.099 108.231L97.0065 117.734Z" fill="#FF6C37"/>
<path d="M117.545 85.3662C118.732 89.0058 119.32 90.8206 120.816 91.4588C122.312 92.097 124.037 91.2494 127.467 89.5642L164.92 71.2166C167.572 69.9203 168.899 69.2722 169.417 68.0457C169.936 66.8192 169.477 65.4132 168.57 62.6112L167.203 58.3933C166.286 55.5813 165.837 54.1853 164.691 53.4972C163.554 52.8092 162.098 53.0685 159.186 53.577L118.104 60.7565C114.335 61.4146 112.45 61.7437 111.612 63.1397C110.775 64.5357 111.363 66.3505 112.55 69.9902L117.545 85.3662Z" fill="#FF6C37"/>
</svg>
