<svg width="720" height="412" viewBox="0 0 720 412" fill="none" xmlns="http://www.w3.org/2000/svg">
<path fill-rule="evenodd" clip-rule="evenodd" d="M399.02 271.69C399.008 271.898 399.004 272.131 399 272.394V290C399 290.943 399 291.414 398.707 291.707C398.633 291.779 398.551 291.834 398.453 291.875C398.355 291.916 398.242 291.943 398.109 291.962C397.992 291.979 397.859 291.987 397.711 291.993L397 292H326C311.859 292 304.785 292 300.395 296.394C296 300.787 296 307.858 296 322V352C296 366.143 296 373.214 300.395 377.606C304.785 382 311.859 382 326 382H424V262L401.766 269.203C400.434 269.636 399.766 269.853 399.383 270.378C399.305 270.485 399.242 270.601 399.191 270.728C399.09 270.986 399.043 271.295 399.02 271.69ZM397.535 361.536C396.801 362.27 395.844 362.636 394.477 362.818C393.117 363 391.352 363 389 363H331C327.129 363 324.848 363 323.348 362.19C323.02 362.014 322.727 361.799 322.465 361.536C321.949 361.021 321.613 360.396 321.402 359.598C321.312 359.268 321.242 358.907 321.188 358.514C321 357.148 321 355.373 321 353V321C321 318.699 321 316.96 321.168 315.611C321.348 314.197 321.715 313.214 322.465 312.465C323.93 311 326.285 311 331 311H399V353C399 354.217 399 355.276 398.973 356.204C398.961 356.692 398.941 357.144 398.91 357.562C398.773 359.433 398.422 360.648 397.535 361.536Z" fill="white"/>
<path fill-rule="evenodd" clip-rule="evenodd" d="M474 382C459.859 382 452.785 382 448.395 377.606C444 373.213 444 366.143 444 352V342C444 335.4 444 332.101 446.051 330.05C448.102 328 451.398 328 458 328H545C545.316 328 545.578 328 545.797 327.989L546.082 327.965C546.184 327.951 546.273 327.934 546.355 327.909C546.434 327.886 546.504 327.855 546.566 327.817C546.617 327.786 546.664 327.75 546.707 327.707C547 327.414 547 326.942 547 326V321C547 316.286 547 313.929 545.535 312.465C544.07 311 541.715 311 537 311H444V292H542C556.141 292 563.215 292 567.605 296.394C572 300.787 572 307.857 572 322V382H474ZM547 346H477.5L476.281 346.002C475.41 346.006 474.68 346.019 474.051 346.061C473.645 346.088 473.281 346.128 472.949 346.187C472.328 346.295 471.828 346.466 471.387 346.736C470.715 347.149 470.148 347.715 469.738 348.388C469 349.59 469 351.227 469 354.5C469 357.773 469 359.41 469.738 360.612C469.914 360.901 470.117 361.171 470.348 361.417C470.652 361.743 471.004 362.028 471.387 362.264C471.984 362.63 472.691 362.813 473.652 362.906C473.977 362.938 474.332 362.958 474.723 362.972L475.602 362.992C476.168 363 476.797 363 477.5 363H537C541.715 363 544.07 363 545.535 361.535C546.141 360.929 546.496 360.169 546.703 359.151C547 357.714 547 355.761 547 353V346Z" fill="white"/>
<path fill-rule="evenodd" clip-rule="evenodd" d="M616.852 403.142C616.797 403.321 616.723 403.479 616.617 403.622C616.234 404.147 615.566 404.364 614.234 404.797L592 412V292H690C704.141 292 711.215 292 715.605 296.394C720 300.787 720 307.858 720 322V352C720 366.143 720 373.214 715.605 377.606C713.355 379.857 710.402 380.955 706.152 381.49C703.684 381.802 700.781 381.923 697.328 381.97C695.121 382 692.688 382 690 382H619C618.059 382 617.586 382 617.293 382.293C617 382.586 617 383.058 617 384V400.991L616.996 401.665C616.992 402.108 616.98 402.464 616.934 402.762C616.914 402.9 616.887 403.025 616.852 403.142ZM627 311C626.055 311 625.203 311 624.434 311.012C622.312 311.044 620.828 311.167 619.727 311.629C619.477 311.734 619.246 311.856 619.031 311.999C618.828 312.135 618.641 312.29 618.465 312.465C618.055 312.877 617.758 313.36 617.547 313.947C617.332 314.535 617.203 315.227 617.121 316.055C617 317.336 617 318.943 617 321V363H685C689.715 363 692.07 363 693.535 361.536C694.164 360.907 694.523 360.114 694.727 359.04C695 357.612 695 355.689 695 353V321C695 319.886 695 318.903 694.98 318.033C694.938 316.146 694.805 314.785 694.383 313.757C694.176 313.255 693.902 312.832 693.535 312.465C692.859 311.79 691.996 311.427 690.801 311.23C689.398 311 687.543 311 685 311H627Z" fill="white"/>
<path fill-rule="evenodd" clip-rule="evenodd" d="M246 292C260.141 292 267.215 292 271.605 296.394C276 300.787 276 307.857 276 322V332C276 338.6 276 341.899 273.949 343.95C273.078 344.82 271.984 345.321 270.508 345.609C268.504 346 265.797 346 262 346H175C174.059 346 173.586 346 173.293 346.293C173.148 346.439 173.074 346.63 173.039 346.902C173 347.175 173 347.528 173 348V353C173 357.714 173 360.071 174.465 361.535C175.93 363 178.285 363 183 363H276V382H178C163.859 382 156.785 382 152.395 377.606C148 373.213 148 366.143 148 352V322C148 307.857 148 300.787 152.395 296.394C156.785 292 163.859 292 178 292H246ZM173 328H242.5C245.773 328 247.41 328 248.613 327.264C248.914 327.077 249.195 326.86 249.449 326.616C249.762 326.319 250.035 325.982 250.262 325.612C251 324.41 251 322.773 251 319.5C251 317.772 251 316.501 250.891 315.509C250.793 314.62 250.609 313.955 250.262 313.388C250.125 313.165 249.973 312.954 249.805 312.757C249.465 312.357 249.062 312.013 248.613 311.736C248.074 311.405 247.445 311.223 246.621 311.123C245.609 311 244.301 311 242.5 311H183C178.285 311 175.93 311 174.465 312.465C173 313.929 173 316.286 173 321V328Z" fill="white"/>
<path d="M121.555 298.443C115.113 292 104.742 292 84 292H0V382H25V321C25 316.286 25 313.929 26.4648 312.465C27.9297 311 30.2852 311 35 311H83C92.4297 311 97.1406 311 100.07 313.929C103 316.857 103 321.572 103 331V382H128V336C128 315.258 128 304.888 121.555 298.443Z" fill="white"/>
<path d="M370.133 69.9647C374.93 69.9647 377.329 69.9647 378.666 68.4279C380.003 66.8912 379.665 64.5174 378.991 59.7698L371.632 8.03325C371.107 4.37259 370.845 2.53601 369.595 1.44906C368.333 0.349609 366.484 0.349609 362.786 0.349609H357.227C353.528 0.349609 351.679 0.349609 350.417 1.44906C349.156 2.54851 348.893 4.37259 348.381 8.03325L341.01 59.7698C340.335 64.5174 339.998 66.8912 341.335 68.4279C342.671 69.9647 345.07 69.9647 349.868 69.9647H370.133Z" fill="white"/>
<path d="M325.496 87.6685C326.983 83.1082 327.72 80.8344 326.67 79.0853C325.621 77.3361 323.26 76.9239 318.537 76.0993L267.05 67.1038C263.402 66.4666 261.578 66.1543 260.154 67.0038C258.729 67.8659 258.155 69.6275 257.005 73.1382L255.294 78.4356C254.144 81.9588 253.582 83.7079 254.232 85.2447C254.881 86.7814 256.543 87.5935 259.866 89.2177L306.793 112.206C311.103 114.318 313.252 115.367 315.126 114.567C317 113.768 317.75 111.494 319.224 106.934L325.496 87.6685Z" fill="white"/>
<path d="M328.54 135.595C324.667 132.771 322.718 131.372 320.732 131.834C318.745 132.297 317.621 134.408 315.384 138.656L290.922 184.82C289.185 188.094 288.323 189.73 288.698 191.354C289.073 192.979 290.572 194.066 293.57 196.239L298.068 199.5C301.067 201.674 302.553 202.761 304.215 202.624C305.877 202.474 307.163 201.15 309.737 198.488L346.094 160.957C349.43 157.509 351.091 155.797 350.917 153.761C350.742 151.724 348.805 150.325 344.92 147.501L328.54 135.595Z" fill="white"/>
<path d="M375.04 147.514C371.167 150.337 369.218 151.737 369.043 153.773C368.869 155.809 370.53 157.521 373.866 160.969L410.223 198.501C412.796 201.162 414.083 202.486 415.745 202.636C417.407 202.786 418.906 201.699 421.892 199.513L426.39 196.252C429.388 194.078 430.875 192.991 431.262 191.367C431.649 189.742 430.775 188.106 429.038 184.832L404.601 138.656C402.352 134.42 401.24 132.296 399.253 131.846C397.267 131.384 395.33 132.796 391.445 135.607L375.04 147.514Z" fill="white"/>
<path d="M400.774 106.959C402.261 111.519 402.998 113.793 404.872 114.592C406.746 115.392 408.908 114.33 413.206 112.218L460.132 89.2299C463.455 87.6057 465.117 86.7936 465.767 85.2569C466.416 83.7202 465.842 81.9586 464.705 78.4478L462.993 73.163C461.844 69.6397 461.281 67.8906 459.845 67.0286C458.42 66.1665 456.596 66.4913 452.948 67.1285L401.474 76.124C396.751 76.9486 394.39 77.3609 393.341 79.11C392.291 80.8591 393.028 83.133 394.515 87.6932L400.774 106.959Z" fill="white"/>
</svg>
